<?xml version="1.0" encoding="utf-8"?>
<!-- Generator: Adobe Illustrator 21.1.0, SVG Export Plug-In . SVG Version: 6.00 Build 0)  -->
<svg version="1.1" id="Layer_1" xmlns="http://www.w3.org/2000/svg" xmlns:xlink="http://www.w3.org/1999/xlink" x="0px" y="0px"
	 viewBox="0 0 574.2 211.1" style="enable-background:new 0 0 574.2 211.1;" xml:space="preserve">
<style type="text/css">
	.st0{fill:#FFFFFF;}
</style>
<path class="st0" d="M109.3,60.6V7.8H4.7v104.7h52.9V152h91.4V60.6H109.3z M57.5,99.2H17.9V21.1h78.1v39.6H57.5V99.2z M109.3,112.5
	H57.5V99.2h38.5V60.6h13.3V112.5z M182.4,151h112.9v-35.1h-68.8V8.3h-44.1V151z M284,43.5h45V151H373V43.5h45V8.3H284V43.5z
	 M426.5,103.6c1.2,14.4,6.5,26.3,15.9,35.6c9.4,9.3,26.2,14,50.4,14c13.8,0,25.3-2,34.4-6c9.1-4,16.2-9.8,21.2-17.6
	c5.1-7.7,7.6-16.2,7.6-25.3c0-7.8-1.9-14.8-5.7-21.1c-3.8-6.3-9.9-11.6-18.2-15.8c-8.3-4.3-22.2-8.5-41.4-12.6
	c-7.8-1.6-12.7-3.4-14.8-5.3c-2.1-1.8-3.2-3.9-3.2-6.1c0-3.1,1.3-5.8,3.9-7.9c2.6-2.2,6.5-3.3,11.6-3.3c6.2,0,11.1,1.5,14.6,4.4
	c3.5,2.9,5.8,7.6,7,14l41.6-2.4c-1.8-14.8-7.5-25.6-17.1-32.4c-9.6-6.8-23.5-10.2-41.7-10.2c-14.9,0-26.5,1.9-35.1,5.6
	c-8.5,3.7-14.9,8.9-19.2,15.4c-4.2,6.5-6.4,13.5-6.4,20.8c0,11.2,4.2,20.3,12.5,27.5c8.2,7.2,22,13,41.4,17.3
	c11.8,2.6,19.3,5.4,22.6,8.3c3.2,2.9,4.9,6.2,4.9,9.9c0,3.9-1.7,7.3-5.1,10.3c-3.4,3-8.3,4.4-14.5,4.4c-8.4,0-14.9-2.9-19.5-8.7
	c-2.8-3.6-4.6-8.8-5.5-15.6L426.5,103.6 M11.8,197.8L3.6,172h3l5.5,18.7c0.4,1.5,0.8,2.9,1.1,4.2c0.3-1.4,0.7-2.8,1.1-4.2l5.7-18.7
	h2.8l-8.3,25.8H11.8z M24.4,175.7V172H27v3.6H24.4z M24.4,197.8v-18.7H27v18.7H24.4z M40.9,197.8v-2.4c-0.5,0.9-1.1,1.6-1.8,2.1
	c-0.7,0.5-1.5,0.7-2.4,0.7c-1.8,0-3.4-0.9-4.7-2.6c-1.3-1.7-2-4.1-2-7.2c0-2.1,0.3-3.9,0.9-5.4c0.6-1.5,1.4-2.6,2.3-3.3
	c1-0.7,2.1-1.1,3.3-1.1c0.9,0,1.6,0.2,2.4,0.7c0.7,0.5,1.3,1.1,1.8,1.9V172h2.6v25.8H40.9z M32.7,188.5c0,2.4,0.4,4.2,1.3,5.4
	c0.8,1.2,1.8,1.8,2.9,1.8c1.1,0,2.1-0.6,2.9-1.7c0.8-1.1,1.2-2.8,1.2-5.1c0-2.6-0.4-4.5-1.2-5.7c-0.8-1.2-1.8-1.8-3.1-1.8
	c-1.1,0-2,0.6-2.8,1.7C33,184.2,32.7,186,32.7,188.5z M57.8,191.8l2.7,0.4c-0.4,2-1.3,3.5-2.4,4.5c-1.2,1-2.6,1.5-4.3,1.5
	c-2.2,0-3.9-0.8-5.3-2.5c-1.3-1.6-2-4-2-7.1c0-3.2,0.7-5.7,2-7.4c1.4-1.7,3.1-2.5,5.1-2.5c2,0,3.6,0.8,5,2.5c1.3,1.7,2,4.1,2,7.2
	l0,0.8H49.2c0.1,2.1,0.6,3.7,1.5,4.7c0.9,1.1,1.9,1.6,3.2,1.6C55.7,195.6,57.1,194.4,57.8,191.8z M49.3,186.7h8.6
	c-0.1-1.6-0.5-2.8-1-3.6c-0.8-1.2-1.9-1.7-3.2-1.7c-1.2,0-2.2,0.5-3,1.5C49.8,183.7,49.4,185,49.3,186.7z M62.8,188.5
	c0-3.2,0.7-5.7,2-7.3c1.4-1.6,3.1-2.5,5.1-2.5c2,0,3.7,0.8,5.1,2.5c1.4,1.6,2.1,4,2.1,7.1c0,3.4-0.7,5.9-2,7.5
	c-1.3,1.6-3.1,2.5-5.2,2.5c-2.1,0-3.8-0.8-5.1-2.5C63.5,194.1,62.8,191.7,62.8,188.5z M65.5,188.5c0,2.4,0.4,4.2,1.3,5.4
	c0.9,1.2,2,1.8,3.3,1.8c1.2,0,2.3-0.6,3.1-1.8c0.9-1.2,1.3-3,1.3-5.4c0-2.4-0.4-4.2-1.3-5.4c-0.9-1.2-2-1.8-3.3-1.8
	c-1.2,0-2.3,0.6-3.1,1.8S65.5,186.1,65.5,188.5z M87.9,189.5l2.6-0.3c0.1,1.4,0.5,2.5,1,3.3c0.5,0.8,1.2,1.4,2.1,1.9
	c0.9,0.5,2,0.7,3.1,0.7c1.7,0,3-0.4,3.9-1.2c0.9-0.8,1.4-1.9,1.4-3.2c0-0.8-0.2-1.4-0.5-2c-0.3-0.6-0.8-1-1.5-1.4s-2.1-0.9-4.4-1.5
	c-2-0.6-3.4-1.2-4.3-1.8s-1.5-1.4-2-2.3c-0.5-0.9-0.7-2-0.7-3.1c0-2.1,0.7-3.8,2-5.1c1.3-1.3,3.2-2,5.5-2c1.6,0,2.9,0.3,4.1,0.9
	s2.1,1.5,2.7,2.7c0.7,1.2,1,2.5,1,4.1l-2.7,0.2c-0.1-1.7-0.6-2.9-1.5-3.7c-0.9-0.8-2.1-1.2-3.6-1.2c-1.6,0-2.8,0.4-3.6,1.1
	c-0.8,0.7-1.2,1.6-1.2,2.8c0,1,0.3,1.9,0.9,2.4c0.6,0.6,2,1.2,4.1,1.7c2.1,0.6,3.6,1.1,4.4,1.5c1.3,0.7,2.3,1.5,2.9,2.6
	c0.7,1.1,1,2.4,1,3.8c0,1.5-0.3,2.8-1,4c-0.7,1.2-1.6,2.1-2.8,2.8c-1.2,0.6-2.6,0.9-4.3,0.9c-2.6,0-4.7-0.8-6.3-2.4
	C88.7,194.3,87.9,192.2,87.9,189.5z M107.2,188.5c0-3.2,0.7-5.7,2-7.3c1.4-1.6,3.1-2.5,5.1-2.5c2,0,3.7,0.8,5.1,2.5
	c1.4,1.6,2.1,4,2.1,7.1c0,3.4-0.7,5.9-2,7.5c-1.3,1.6-3.1,2.5-5.2,2.5c-2.1,0-3.8-0.8-5.1-2.5C107.9,194.1,107.2,191.7,107.2,188.5z
	 M109.8,188.5c0,2.4,0.4,4.2,1.3,5.4c0.9,1.2,2,1.8,3.3,1.8c1.2,0,2.3-0.6,3.1-1.8c0.9-1.2,1.3-3,1.3-5.4c0-2.4-0.4-4.2-1.3-5.4
	c-0.9-1.2-2-1.8-3.3-1.8c-1.2,0-2.3,0.6-3.1,1.8S109.8,186.1,109.8,188.5z M124.5,197.8V172h2.6v25.8H124.5z M141.2,197.8v-2.7
	c-0.6,1.1-1.3,1.8-2.1,2.4c-0.8,0.5-1.7,0.8-2.7,0.8c-1.2,0-2.2-0.3-3.1-1c-0.9-0.7-1.4-1.5-1.7-2.5c-0.3-1-0.4-2.4-0.4-4.1v-11.6
	h2.6v10.4c0,1.9,0.1,3.2,0.3,3.9c0.2,0.7,0.6,1.2,1.1,1.6c0.5,0.4,1.1,0.6,1.8,0.6c1.2,0,2.3-0.5,3.1-1.5c0.7-0.9,1-2.5,1-4.8v-10
	h2.6v18.7H141.2z M153.4,195l0.4,2.8c-0.7,0.2-1.4,0.3-1.9,0.3c-0.9,0-1.6-0.2-2.2-0.5c-0.6-0.4-0.9-0.8-1.1-1.5
	c-0.2-0.6-0.3-1.9-0.3-3.7v-10.7h-1.9v-2.5h1.9v-4.6l2.6-1.9v6.5h2.6v2.5h-2.6v10.9c0,1,0.1,1.7,0.2,2c0.2,0.4,0.6,0.6,1.2,0.6
	C152.5,195.1,152.9,195.1,153.4,195z M155.8,175.7V172h2.6v3.6H155.8z M155.8,197.8v-18.7h2.6v18.7H155.8z M161.4,188.5
	c0-3.2,0.7-5.7,2-7.3c1.4-1.6,3.1-2.5,5.1-2.5c2,0,3.7,0.8,5.1,2.5c1.4,1.6,2.1,4,2.1,7.1c0,3.4-0.7,5.9-2,7.5
	c-1.3,1.6-3.1,2.5-5.2,2.5c-2.1,0-3.8-0.8-5.1-2.5C162.1,194.1,161.4,191.7,161.4,188.5z M164,188.5c0,2.4,0.4,4.2,1.3,5.4
	c0.9,1.2,2,1.8,3.3,1.8c1.2,0,2.3-0.6,3.1-1.8c0.9-1.2,1.3-3,1.3-5.4c0-2.4-0.4-4.2-1.3-5.4c-0.9-1.2-2-1.8-3.3-1.8
	c-1.2,0-2.3,0.6-3.1,1.8C164.5,184.3,164,186.1,164,188.5z M178.8,197.8v-18.7h2.3v2.6c0.6-1,1.2-1.8,2.1-2.3
	c0.8-0.5,1.7-0.8,2.8-0.8c0.8,0,1.6,0.2,2.3,0.5c0.7,0.3,1.3,0.7,1.7,1.3c0.4,0.5,0.7,1.2,1,2s0.3,2.1,0.3,3.8v11.5h-2.6v-11.4
	c0-1.4-0.1-2.4-0.4-3c-0.2-0.6-0.6-1.1-1.1-1.5c-0.5-0.3-1.1-0.5-1.7-0.5c-1.2,0-2.2,0.5-3,1.4c-0.7,0.9-1.1,2.5-1.1,4.8v10.2H178.8
	z M194.2,192.2l2.6-0.5c0.2,1.3,0.6,2.3,1.2,2.9c0.7,0.6,1.6,1,2.7,1c1.1,0,2-0.3,2.6-0.8c0.6-0.6,0.9-1.3,0.9-2.1
	c0-0.7-0.3-1.3-0.8-1.7c-0.4-0.3-1.2-0.6-2.6-1.1c-2-0.6-3.4-1.1-4-1.6c-0.7-0.4-1.2-1-1.6-1.7c-0.4-0.7-0.6-1.6-0.6-2.5
	c0-1.6,0.5-2.9,1.5-3.9c1-1,2.4-1.5,4.2-1.5c1.1,0,2.1,0.2,3,0.6c0.9,0.4,1.5,1,2,1.7c0.5,0.7,0.8,1.7,0.9,3l-2.5,0.4
	c-0.2-2-1.3-3.1-3.3-3.1c-1.1,0-2,0.2-2.5,0.7c-0.6,0.5-0.8,1-0.8,1.7c0,0.7,0.3,1.2,0.8,1.6c0.3,0.2,1.3,0.6,2.8,1.1
	c2.1,0.7,3.5,1.2,4.2,1.6c0.6,0.4,1.1,1,1.5,1.7c0.4,0.7,0.5,1.5,0.5,2.5c0,1.8-0.6,3.2-1.7,4.3c-1.1,1.1-2.7,1.7-4.6,1.7
	C196.9,198.2,194.8,196.2,194.2,192.2z M218.9,197.8v-16.2h-2.3v-2.5h2.3v-2c0-1.5,0.2-2.6,0.5-3.3c0.3-0.7,0.8-1.3,1.4-1.7
	c0.6-0.4,1.4-0.6,2.4-0.6c0.7,0,1.6,0.1,2.4,0.3l-0.4,2.7c-0.5-0.1-1-0.2-1.5-0.2c-0.8,0-1.3,0.2-1.7,0.6c-0.3,0.4-0.5,1.2-0.5,2.3
	v1.7h3v2.5h-3v16.2H218.9z M225.4,188.5c0-3.2,0.7-5.7,2-7.3c1.4-1.6,3.1-2.5,5.1-2.5c2,0,3.7,0.8,5.1,2.5c1.4,1.6,2.1,4,2.1,7.1
	c0,3.4-0.7,5.9-2,7.5c-1.3,1.6-3.1,2.5-5.2,2.5c-2.1,0-3.8-0.8-5.1-2.5C226.1,194.1,225.4,191.7,225.4,188.5z M228.1,188.5
	c0,2.4,0.4,4.2,1.3,5.4c0.9,1.2,2,1.8,3.3,1.8c1.2,0,2.3-0.6,3.1-1.8c0.9-1.2,1.3-3,1.3-5.4c0-2.4-0.4-4.2-1.3-5.4
	c-0.9-1.2-2-1.8-3.3-1.8c-1.2,0-2.3,0.6-3.1,1.8C228.5,184.3,228.1,186.1,228.1,188.5z M242.9,197.8v-18.7h2.3v2.8
	c0.6-1.3,1.1-2.2,1.6-2.6c0.5-0.4,1.1-0.6,1.7-0.6c0.9,0,1.8,0.3,2.7,1l-0.9,2.9c-0.6-0.5-1.3-0.7-1.9-0.7c-0.6,0-1.1,0.2-1.5,0.6
	c-0.5,0.4-0.8,0.9-1,1.6c-0.3,1.2-0.5,2.5-0.5,3.9v9.8H242.9z M260.3,189.5l2.6-0.3c0.1,1.4,0.5,2.5,1,3.3c0.5,0.8,1.2,1.4,2.1,1.9
	c0.9,0.5,2,0.7,3.1,0.7c1.7,0,3-0.4,3.9-1.2c0.9-0.8,1.4-1.9,1.4-3.2c0-0.8-0.2-1.4-0.5-2s-0.8-1-1.5-1.4c-0.7-0.4-2.1-0.9-4.4-1.5
	c-2-0.6-3.4-1.2-4.3-1.8c-0.8-0.6-1.5-1.4-2-2.3c-0.5-0.9-0.7-2-0.7-3.1c0-2.1,0.7-3.8,2-5.1c1.3-1.3,3.2-2,5.5-2
	c1.6,0,2.9,0.3,4.1,0.9s2.1,1.5,2.7,2.7c0.7,1.2,1,2.5,1,4.1l-2.7,0.2c-0.1-1.7-0.6-2.9-1.5-3.7c-0.9-0.8-2.1-1.2-3.6-1.2
	c-1.6,0-2.8,0.4-3.6,1.1c-0.8,0.7-1.2,1.6-1.2,2.8c0,1,0.3,1.9,0.9,2.4c0.6,0.6,2,1.2,4.1,1.7c2.1,0.6,3.6,1.1,4.4,1.5
	c1.3,0.7,2.3,1.5,2.9,2.6c0.7,1.1,1,2.4,1,3.8c0,1.5-0.3,2.8-1,4c-0.7,1.2-1.6,2.1-2.8,2.8c-1.2,0.6-2.6,0.9-4.3,0.9
	c-2.6,0-4.7-0.8-6.3-2.4C261.2,194.3,260.4,192.2,260.3,189.5z M291.1,191.8l2.7,0.4c-0.4,2-1.3,3.5-2.4,4.5c-1.2,1-2.6,1.5-4.3,1.5
	c-2.2,0-3.9-0.8-5.3-2.5c-1.3-1.6-2-4-2-7.1c0-3.2,0.7-5.7,2-7.4c1.4-1.7,3.1-2.5,5.1-2.5c2,0,3.6,0.8,5,2.5c1.3,1.7,2,4.1,2,7.2
	l0,0.8h-11.4c0.1,2.1,0.6,3.7,1.5,4.7c0.9,1.1,1.9,1.6,3.2,1.6C289,195.6,290.3,194.4,291.1,191.8z M282.5,186.7h8.6
	c-0.1-1.6-0.5-2.8-1-3.6c-0.8-1.2-1.9-1.7-3.2-1.7c-1.2,0-2.2,0.5-3,1.5C283.1,183.7,282.6,185,282.5,186.7z M307.1,191l2.6,0.4
	c-0.3,2.2-1,3.9-2.2,5.1c-1.2,1.2-2.6,1.8-4.2,1.8c-2,0-3.7-0.8-5-2.5c-1.3-1.6-1.9-4.1-1.9-7.3c0-3.2,0.7-5.7,2-7.3
	c1.3-1.6,3-2.4,5-2.4c1.6,0,2.9,0.5,4,1.5c1.1,1,1.8,2.5,2.1,4.4l-2.5,0.5c-0.2-1.3-0.7-2.2-1.3-2.8c-0.6-0.6-1.3-0.9-2.2-0.9
	c-1.3,0-2.3,0.6-3.2,1.7c-0.8,1.1-1.3,2.9-1.3,5.4c0,2.5,0.4,4.4,1.2,5.5c0.8,1.1,1.8,1.7,3.1,1.7c1,0,1.8-0.4,2.5-1.1
	C306.4,193.8,306.9,192.6,307.1,191z M321.8,197.8v-2.7c-0.6,1.1-1.3,1.8-2.1,2.4c-0.8,0.5-1.7,0.8-2.7,0.8c-1.2,0-2.2-0.3-3.1-1
	c-0.9-0.7-1.4-1.5-1.7-2.5s-0.4-2.4-0.4-4.1v-11.6h2.6v10.4c0,1.9,0.1,3.2,0.3,3.9c0.2,0.7,0.6,1.2,1.1,1.6c0.5,0.4,1.1,0.6,1.8,0.6
	c1.2,0,2.3-0.5,3.1-1.5c0.7-0.9,1-2.5,1-4.8v-10h2.6v18.7H321.8z M328.3,197.8v-18.7h2.3v2.8c0.6-1.3,1.1-2.2,1.6-2.6
	s1.1-0.6,1.7-0.6c0.9,0,1.8,0.3,2.7,1l-0.9,2.9c-0.6-0.5-1.3-0.7-1.9-0.7c-0.6,0-1.1,0.2-1.5,0.6c-0.5,0.4-0.8,0.9-1,1.6
	c-0.3,1.2-0.5,2.5-0.5,3.9v9.8H328.3z M338.1,175.7V172h2.6v3.6H338.1z M338.1,197.8v-18.7h2.6v18.7H338.1z M350.4,195l0.4,2.8
	c-0.7,0.2-1.4,0.3-1.9,0.3c-0.9,0-1.6-0.2-2.2-0.5c-0.6-0.4-0.9-0.8-1.1-1.5c-0.2-0.6-0.3-1.9-0.3-3.7v-10.7h-1.9v-2.5h1.9v-4.6
	l2.6-1.9v6.5h2.6v2.5h-2.6v10.9c0,1,0.1,1.7,0.2,2c0.2,0.4,0.6,0.6,1.2,0.6C349.6,195.1,349.9,195.1,350.4,195z M352.8,205l-0.3-3
	c0.6,0.2,1.1,0.3,1.5,0.3c0.6,0,1-0.1,1.4-0.3c0.4-0.2,0.7-0.6,0.9-1c0.1-0.2,0.4-1.2,1-3.1l-5.8-18.7h2.8l3.2,10.8
	c0.4,1.3,0.8,2.8,1.1,4.3c0.3-1.5,0.6-2.9,1.1-4.3l3.3-10.9h2.6l-5.8,19c-0.8,2.5-1.4,4.1-1.8,4.9c-0.4,0.8-0.9,1.4-1.5,1.8
	c-0.6,0.4-1.2,0.5-1.9,0.5C354,205.4,353.4,205.3,352.8,205z M376.2,197.8V172h8c1.9,0,3.3,0.2,4.2,0.5c1.2,0.4,2.2,1.3,2.9,2.5
	c0.7,1.2,1.1,2.7,1.1,4.5c0,2.3-0.6,4.2-1.8,5.7c-1.2,1.5-3.2,2.2-6.1,2.2H379v10.5H376.2z M379,184.3h5.5c1.7,0,3-0.4,3.8-1.2
	c0.8-0.8,1.2-2,1.2-3.5c0-1-0.2-1.9-0.6-2.6s-0.9-1.2-1.4-1.5c-0.6-0.3-1.6-0.4-3-0.4H379V184.3z M395.6,197.8v-18.7h2.3v2.8
	c0.6-1.3,1.1-2.2,1.6-2.6s1.1-0.6,1.7-0.6c0.9,0,1.8,0.3,2.7,1l-0.9,2.9c-0.6-0.5-1.3-0.7-1.9-0.7c-0.6,0-1.1,0.2-1.5,0.6
	c-0.5,0.4-0.8,0.9-1,1.6c-0.3,1.2-0.5,2.5-0.5,3.9v9.8H395.6z M404.4,188.5c0-3.2,0.7-5.7,2-7.3c1.4-1.6,3.1-2.5,5.1-2.5
	c2,0,3.7,0.8,5.1,2.5c1.4,1.6,2.1,4,2.1,7.1c0,3.4-0.7,5.9-2,7.5c-1.3,1.6-3.1,2.5-5.2,2.5c-2.1,0-3.8-0.8-5.1-2.5
	C405.1,194.1,404.4,191.7,404.4,188.5z M407.1,188.5c0,2.4,0.4,4.2,1.3,5.4c0.9,1.2,2,1.8,3.3,1.8c1.2,0,2.3-0.6,3.1-1.8
	c0.9-1.2,1.3-3,1.3-5.4c0-2.4-0.4-4.2-1.3-5.4c-0.9-1.2-2-1.8-3.3-1.8c-1.2,0-2.3,0.6-3.1,1.8C407.5,184.3,407.1,186.1,407.1,188.5z
	 M422.5,197.8v-16.2h-2.3v-2.5h2.3v-2c0-1.5,0.2-2.6,0.5-3.3c0.3-0.7,0.8-1.3,1.4-1.7c0.6-0.4,1.4-0.6,2.4-0.6
	c0.7,0,1.6,0.1,2.4,0.3l-0.4,2.7c-0.5-0.1-1-0.2-1.5-0.2c-0.8,0-1.3,0.2-1.7,0.6c-0.3,0.4-0.5,1.2-0.5,2.3v1.7h3v2.5h-3v16.2H422.5z
	 M440.5,191.8l2.7,0.4c-0.4,2-1.3,3.5-2.4,4.5c-1.2,1-2.6,1.5-4.3,1.5c-2.2,0-3.9-0.8-5.3-2.5c-1.3-1.6-2-4-2-7.1
	c0-3.2,0.7-5.7,2-7.4c1.4-1.7,3.1-2.5,5.1-2.5c2,0,3.6,0.8,5,2.5c1.3,1.7,2,4.1,2,7.2l0,0.8h-11.4c0.1,2.1,0.6,3.7,1.5,4.7
	c0.9,1.1,1.9,1.6,3.2,1.6C438.4,195.6,439.7,194.4,440.5,191.8z M432,186.7h8.6c-0.1-1.6-0.5-2.8-1-3.6c-0.8-1.2-1.9-1.7-3.2-1.7
	c-1.2,0-2.2,0.5-3,1.5C432.5,183.7,432.1,185,432,186.7z M445.5,192.2l2.6-0.5c0.2,1.3,0.6,2.3,1.2,2.9c0.7,0.6,1.6,1,2.7,1
	c1.1,0,2-0.3,2.6-0.8c0.6-0.6,0.9-1.3,0.9-2.1c0-0.7-0.3-1.3-0.8-1.7c-0.4-0.3-1.2-0.6-2.6-1.1c-2-0.6-3.4-1.1-4-1.6
	c-0.7-0.4-1.2-1-1.6-1.7c-0.4-0.7-0.6-1.6-0.6-2.5c0-1.6,0.5-2.9,1.5-3.9c1-1,2.4-1.5,4.2-1.5c1.1,0,2.1,0.2,3,0.6
	c0.9,0.4,1.5,1,2,1.7c0.5,0.7,0.8,1.7,0.9,3l-2.5,0.4c-0.2-2-1.3-3.1-3.3-3.1c-1.1,0-2,0.2-2.5,0.7c-0.6,0.5-0.8,1-0.8,1.7
	c0,0.7,0.3,1.2,0.8,1.6c0.3,0.2,1.3,0.6,2.8,1.1c2.1,0.7,3.5,1.2,4.2,1.6c0.6,0.4,1.1,1,1.5,1.7c0.4,0.7,0.5,1.5,0.5,2.5
	c0,1.8-0.6,3.2-1.7,4.3c-1.1,1.1-2.7,1.7-4.6,1.7C448.2,198.2,446.1,196.2,445.5,192.2z M460.2,192.2l2.6-0.5
	c0.2,1.3,0.6,2.3,1.2,2.9c0.7,0.6,1.6,1,2.7,1c1.1,0,2-0.3,2.6-0.8c0.6-0.6,0.9-1.3,0.9-2.1c0-0.7-0.3-1.3-0.8-1.7
	c-0.4-0.3-1.2-0.6-2.6-1.1c-2-0.6-3.4-1.1-4-1.6c-0.7-0.4-1.2-1-1.6-1.7c-0.4-0.7-0.6-1.6-0.6-2.5c0-1.6,0.5-2.9,1.5-3.9
	c1-1,2.4-1.5,4.2-1.5c1.1,0,2.1,0.2,3,0.6c0.9,0.4,1.5,1,2,1.7c0.5,0.7,0.8,1.7,0.9,3l-2.5,0.4c-0.2-2-1.3-3.1-3.3-3.1
	c-1.1,0-2,0.2-2.5,0.7c-0.6,0.5-0.8,1-0.8,1.7c0,0.7,0.3,1.2,0.8,1.6c0.3,0.2,1.3,0.6,2.8,1.1c2.1,0.7,3.5,1.2,4.2,1.6
	c0.6,0.4,1.1,1,1.5,1.7c0.4,0.7,0.5,1.5,0.5,2.5c0,1.8-0.6,3.2-1.7,4.3c-1.1,1.1-2.7,1.7-4.6,1.7C463,198.2,460.8,196.2,460.2,192.2
	z M476,175.7V172h2.6v3.6H476z M476,197.8v-18.7h2.6v18.7H476z M481.6,188.5c0-3.2,0.7-5.7,2-7.3c1.4-1.6,3.1-2.5,5.1-2.5
	c2,0,3.7,0.8,5.1,2.5c1.4,1.6,2.1,4,2.1,7.1c0,3.4-0.7,5.9-2,7.5c-1.3,1.6-3.1,2.5-5.2,2.5c-2.1,0-3.8-0.8-5.1-2.5
	C482.3,194.1,481.6,191.7,481.6,188.5z M484.3,188.5c0,2.4,0.4,4.2,1.3,5.4c0.9,1.2,2,1.8,3.3,1.8c1.2,0,2.3-0.6,3.1-1.8
	c0.9-1.2,1.3-3,1.3-5.4c0-2.4-0.4-4.2-1.3-5.4c-0.9-1.2-2-1.8-3.3-1.8c-1.2,0-2.3,0.6-3.1,1.8S484.3,186.1,484.3,188.5z M499,197.8
	v-18.7h2.3v2.6c0.6-1,1.2-1.8,2.1-2.3c0.8-0.5,1.7-0.8,2.8-0.8c0.8,0,1.6,0.2,2.3,0.5c0.7,0.3,1.3,0.7,1.7,1.3c0.4,0.5,0.7,1.2,1,2
	s0.3,2.1,0.3,3.8v11.5h-2.6v-11.4c0-1.4-0.1-2.4-0.4-3c-0.2-0.6-0.6-1.1-1.1-1.5c-0.5-0.3-1.1-0.5-1.7-0.5c-1.2,0-2.2,0.5-3,1.4
	c-0.7,0.9-1.1,2.5-1.1,4.8v10.2H499z M525.4,195.5c-0.9,0.9-1.8,1.6-2.7,2c-0.9,0.5-1.9,0.7-2.9,0.7c-1.6,0-2.9-0.5-3.8-1.4
	c-1-1-1.4-2.3-1.4-3.9c0-1.1,0.2-2,0.7-2.9c0.4-0.8,1.1-1.5,1.8-2c0.8-0.5,1.9-0.8,3.5-1c2.1-0.3,3.7-0.7,4.6-1.1l0-0.8
	c0-1.3-0.2-2.2-0.7-2.7c-0.6-0.8-1.6-1.1-3-1.1c-1.2,0-2.1,0.3-2.7,0.8c-0.6,0.5-1,1.4-1.3,2.8l-2.6-0.4c0.4-2,1.1-3.5,2.2-4.4
	c1.1-0.9,2.7-1.4,4.8-1.4c1.6,0,2.9,0.3,3.8,0.9c0.9,0.6,1.5,1.4,1.7,2.2c0.2,0.9,0.4,2.2,0.4,3.9v4.2c0,3,0.1,4.8,0.2,5.6
	c0.1,0.8,0.3,1.5,0.7,2.2H526C525.7,197.2,525.5,196.4,525.4,195.5z M525.2,188.5c-1,0.5-2.4,0.9-4.2,1.2c-1.1,0.2-1.9,0.4-2.3,0.6
	c-0.4,0.2-0.8,0.6-1,1c-0.2,0.4-0.4,0.9-0.4,1.5c0,0.9,0.3,1.6,0.8,2.1c0.6,0.5,1.3,0.8,2.3,0.8c0.9,0,1.8-0.2,2.5-0.7
	c0.8-0.5,1.3-1.1,1.7-1.9c0.4-0.8,0.6-2,0.6-3.5V188.5z M531.8,197.8V172h2.6v25.8H531.8z M537.4,192.2l2.6-0.5
	c0.2,1.3,0.6,2.3,1.2,2.9c0.7,0.6,1.6,1,2.7,1c1.1,0,2-0.3,2.6-0.8c0.6-0.6,0.9-1.3,0.9-2.1c0-0.7-0.3-1.3-0.8-1.7
	c-0.4-0.3-1.2-0.6-2.6-1.1c-2-0.6-3.4-1.1-4-1.6c-0.7-0.4-1.2-1-1.6-1.7c-0.4-0.7-0.6-1.6-0.6-2.5c0-1.6,0.5-2.9,1.5-3.9
	c1-1,2.4-1.5,4.2-1.5c1.1,0,2.1,0.2,3,0.6c0.9,0.4,1.5,1,2,1.7c0.5,0.7,0.8,1.7,0.9,3l-2.5,0.4c-0.2-2-1.3-3.1-3.3-3.1
	c-1.1,0-2,0.2-2.5,0.7c-0.6,0.5-0.8,1-0.8,1.7c0,0.7,0.3,1.2,0.8,1.6c0.3,0.2,1.3,0.6,2.8,1.1c2.1,0.7,3.5,1.2,4.2,1.6
	c0.6,0.4,1.1,1,1.5,1.7c0.4,0.7,0.5,1.5,0.5,2.5c0,1.8-0.6,3.2-1.7,4.3c-1.1,1.1-2.7,1.7-4.6,1.7C540.2,198.2,538,196.2,537.4,192.2
	z M556.9,181.9v-9.6h-2.9V171h7.1v1.3h-2.9v9.6H556.9z M562.2,181.9V171h1.8l2.1,7.7l0.4,1.6c0.1-0.4,0.3-1,0.5-1.7l2.1-7.6h1.6
	v10.9h-1.1v-9.1l-2.6,9.1h-1.1l-2.6-9.2v9.2H562.2z"/>
</svg>
